<svg xmlns="http://www.w3.org/2000/svg" width="176.455" height="23.139" viewBox="0 0 176.455 23.139">
  <g id="autograph-collection-hotels-vector-logo" transform="translate(-121.5 -362.2)">
    <g id="Group_7940" data-name="Group 7940" transform="translate(121.5 362.2)">
      <path id="Path_30578" data-name="Path 30578" d="M618.226,365.626a4.02,4.02,0,0,0-2.759-1.18,3.692,3.692,0,0,0,.076,7.383,4.209,4.209,0,0,0,2.759-1.18v1.256a4.7,4.7,0,0,1-7.4-3.787,4.743,4.743,0,0,1,4.719-4.719,4.69,4.69,0,0,1,2.683.856v1.332h-.076Z" transform="translate(-517.773 -363.172)" fill="#fff"/>
      <path id="Path_30579" data-name="Path 30579" d="M672.138,368.543a4.72,4.72,0,1,1-4.719-4.643A4.678,4.678,0,0,1,672.138,368.543Zm-8.43,0a3.7,3.7,0,0,0,3.692,3.692,3.745,3.745,0,0,0,3.692-3.692,3.692,3.692,0,0,0-7.383,0Z" transform="translate(-559.716 -363.577)" fill="#fff"/>
      <path id="Path_30580" data-name="Path 30580" d="M839.1,365.626a4.02,4.02,0,0,0-2.759-1.18,3.679,3.679,0,0,0-3.615,3.692,3.731,3.731,0,0,0,3.615,3.692,4.209,4.209,0,0,0,2.759-1.18v1.256a4.7,4.7,0,0,1-7.4-3.787,4.743,4.743,0,0,1,4.719-4.719,4.689,4.689,0,0,1,2.683.856Z" transform="translate(-696.557 -363.172)" fill="#fff"/>
      <path id="Path_30581" data-name="Path 30581" d="M728.451,372.811h2.512v.951H727.5V364.8h1.028v8.03h-.076Z" transform="translate(-612.185 -364.305)" fill="#fff"/>
      <path id="Path_30582" data-name="Path 30582" d="M762.351,372.811h2.512v.951H761.4V364.8h1.028v8.03h-.076Z" transform="translate(-639.634 -364.305)" fill="#fff"/>
      <path id="Path_30583" data-name="Path 30583" d="M794.5,364.7h4.643v.951h-3.692v2.683h3.539v.951h-3.539v3.539h3.692v.951H794.5Z" transform="translate(-666.436 -364.224)" fill="#fff"/>
      <path id="Path_30584" data-name="Path 30584" d="M885.735,373.682h-1.028v-8.03H882.5V364.7h5.347v.951H885.64v8.03Z" transform="translate(-737.69 -364.224)" fill="#fff"/>
      <path id="Path_30585" data-name="Path 30585" d="M924.528,373.763H923.5V364.8h1.028Z" transform="translate(-770.888 -364.305)" fill="#fff"/>
      <path id="Path_30586" data-name="Path 30586" d="M952.338,368.543a4.72,4.72,0,1,1-4.719-4.643A4.678,4.678,0,0,1,952.338,368.543Zm-8.411,0a3.7,3.7,0,0,0,3.692,3.692,3.745,3.745,0,0,0,3.692-3.692,3.692,3.692,0,0,0-7.383,0Z" transform="translate(-786.597 -363.577)" fill="#fff"/>
      <path id="Path_30587" data-name="Path 30587" d="M1006.6,362.7l7,7.4v-7h1.028v9.438l-7-7.307v6.927H1006.6Z" transform="translate(-838.175 -362.605)" fill="#fff"/>
      <path id="Path_30588" data-name="Path 30588" d="M178.09,370.047a3.355,3.355,0,0,0,.4,1.96,2.348,2.348,0,0,0,1.808.856,2.452,2.452,0,0,0,1.732-.78,3.02,3.02,0,0,0,.476-2.036V364.7h1.028v5.671a3.324,3.324,0,0,1-.78,2.512,3.473,3.473,0,0,1-2.436,1.028,3.356,3.356,0,0,1-2.36-.951,3.2,3.2,0,0,1-.856-2.588V364.7h1.028l-.038,5.347Z" transform="translate(-166.52 -364.224)" fill="#fff"/>
      <path id="Path_30589" data-name="Path 30589" d="M228.035,373.682h-1.028v-8.03H224.8V364.7h5.366v.951h-2.207v8.03Z" transform="translate(-205.143 -364.224)" fill="#fff"/>
      <path id="Path_30590" data-name="Path 30590" d="M272.738,368.543a4.72,4.72,0,1,1-4.719-4.643A4.678,4.678,0,0,1,272.738,368.543Zm-8.411,0a3.7,3.7,0,0,0,3.692,3.692,3.745,3.745,0,0,0,3.692-3.692,3.692,3.692,0,0,0-7.383,0Z" transform="translate(-236.317 -363.577)" fill="#fff"/>
      <path id="Path_30591" data-name="Path 30591" d="M488.751,373.763H487.8V364.8h1.5a3.511,3.511,0,0,1,2.207.476,2.407,2.407,0,0,1,1.028,2.036,2.707,2.707,0,0,1-.856,1.96,3.5,3.5,0,0,1-2.131.628h-.7v3.863Zm0-4.89h.628c1.1,0,2.036-.324,2.036-1.656,0-1.5-1.18-1.579-2.36-1.579h-.4v3.216h.1Z" transform="translate(-418.097 -364.305)" fill="#fff"/>
      <path id="Path_30592" data-name="Path 30592" d="M533.071,368.467V364.3H534.1v8.963h-1.028v-3.939h-4.643v3.939H527.4v-8.886h1.028v4.167h4.643Z" transform="translate(-450.162 -363.9)" fill="#fff"/>
      <path id="Path_30593" data-name="Path 30593" d="M392.51,373.439h1.18l-2.436-4.167a1.547,1.547,0,0,0,.628-.4,2.547,2.547,0,0,0,.856-1.96,2.384,2.384,0,0,0-1.028-2.036,3.623,3.623,0,0,0-2.207-.476H388v8.963h1.028v-8.106h.4c1.18,0,2.36.076,2.36,1.579,0,1.256-.951,1.579-1.96,1.656Z" transform="translate(-337.288 -363.981)" fill="#fff"/>
      <path id="Path_30594" data-name="Path 30594" d="M335.091,368.381h-3.768a2.681,2.681,0,0,1,.951.951h1.732a2.449,2.449,0,0,1-.856,1.884,2.761,2.761,0,0,1-.951.628,3.224,3.224,0,0,1-1.408.324,3.458,3.458,0,0,1-2.512-1.18,3.264,3.264,0,0,1-1.028-2.36V368.4a2.716,2.716,0,0,1,.076-.78,3.781,3.781,0,0,1,3.615-2.988,3.457,3.457,0,0,1,2.987,1.732l.7-.7a4.436,4.436,0,0,0-3.692-1.96,4.589,4.589,0,0,0-4.643,4.32v.324a2.718,2.718,0,0,0,.076.78,4.654,4.654,0,0,0,4.567,3.863,3.69,3.69,0,0,0,1.332-.228c.4-.152.7-.324,1.1-.476a8.588,8.588,0,0,0,.951-.78A5.522,5.522,0,0,0,335.091,368.381Z" transform="translate(-287.329 -363.415)" fill="#fff"/>
      <path id="Path_30595" data-name="Path 30595" d="M121.5,372.143h1.1l1.332-3.14a8.444,8.444,0,0,1,3.863,2.283,6.866,6.866,0,0,1,.78.951h1.1l-4.015-9.438-2.283,5.195c-.323-.076-.628-.076-.951-.152a4.416,4.416,0,0,1,.552,1.028Zm2.835-4.015,1.332-3.064,1.96,4.8A8.945,8.945,0,0,0,124.335,368.128Z" transform="translate(-121.5 -362.686)" fill="#fff"/>
      <path id="Path_30596" data-name="Path 30596" d="M434.886,362.2l-2.283,5.195c-.324-.076-.628-.076-.951-.152a4.415,4.415,0,0,1,.552,1.028h0l-1.5,3.387h1.1l1.332-3.14A8.444,8.444,0,0,1,437,370.8a6.87,6.87,0,0,1,.78.951h1.1Zm-1.351,5.442,1.332-3.064,2.036,4.8A10.693,10.693,0,0,0,433.535,367.642Z" transform="translate(-371.863 -362.2)" fill="#fff"/>
    </g>
    <g id="Group_7941" data-name="Group 7941" transform="translate(187.816 378.413)">
      <path id="Path_30597" data-name="Path 30597" d="M521.527,450.863a3.463,3.463,0,0,1-6.927,0,3.463,3.463,0,1,1,6.927,0Zm-.78,0a2.683,2.683,0,1,0-5.366,0,2.656,2.656,0,0,0,2.683,2.683A2.73,2.73,0,0,0,520.746,450.863Z" transform="translate(-506.113 -447.4)" fill="#fff"/>
      <path id="Path_30598" data-name="Path 30598" d="M569.96,454.9h-.78V449.08H567.6v-.78h3.939v.78H569.96Z" transform="translate(-549.028 -448.129)" fill="#fff"/>
      <path id="Path_30599" data-name="Path 30599" d="M607.3,448.119h3.539v.78h-2.683v1.884h2.683v.78h-2.683v2.36h2.759v.78h-3.539v-6.6H607.3Z" transform="translate(-581.173 -447.967)" fill="#fff"/>
      <path id="Path_30600" data-name="Path 30600" d="M647.7,454.023h2.036v.78H646.9v-6.6h.856v5.823Z" transform="translate(-613.238 -448.048)" fill="#fff"/>
      <path id="Path_30601" data-name="Path 30601" d="M682.016,449.132a1.117,1.117,0,0,0-1.028-.628,1.055,1.055,0,0,0-1.1.951c0,.552.476.78.951.951l.476.152c.952.4,1.656.856,1.656,1.96a2.049,2.049,0,0,1-2.131,2.036,2.027,2.027,0,0,1-2.036-1.808l.856-.152a1.243,1.243,0,0,0,1.256,1.256,1.226,1.226,0,0,0,1.18-1.256c0-.7-.552-1.028-1.1-1.256l-.476-.152c-.78-.323-1.408-.78-1.408-1.656a1.805,1.805,0,0,1,1.96-1.732,2.073,2.073,0,0,1,1.732,1.028Z" transform="translate(-639.068 -447.724)" fill="#fff"/>
      <path id="Path_30602" data-name="Path 30602" d="M474.015,448.2v2.911h-3.14V448.2H470v6.622h.875v-2.911h3.14v2.911h.78V448.2Z" transform="translate(-470 -448.048)" fill="#fff"/>
    </g>
  </g>
</svg>
