<svg xmlns="http://www.w3.org/2000/svg" width="104.486" height="31.8" viewBox="0 0 104.486 31.8">
  <g id="marriott-bonvoy-black" transform="translate(-1.9 -2.4)">
    <path id="Path_30603" data-name="Path 30603" d="M13.441,23.764a6.009,6.009,0,0,1,1.473,1.6,3.888,3.888,0,0,1,.491,1.964,3.96,3.96,0,0,1-1.6,3.315A5.38,5.38,0,0,1,10,31.99H1.9V16.029H9.512a5.349,5.349,0,0,1,3.561,1.351,4.134,4.134,0,0,1,1.473,3.192,3.781,3.781,0,0,1-.368,1.6,5.07,5.07,0,0,1-.859,1.351l-.123.246Zm-8.717-5.4v4.3H9.512a2.934,2.934,0,0,0,1.719-.614,1.919,1.919,0,0,0,.737-1.473,1.75,1.75,0,0,0-.737-1.473,2.662,2.662,0,0,0-1.719-.614H4.724Zm7.121,10.8a2.229,2.229,0,0,0,.737-1.719,2.424,2.424,0,0,0-.737-1.719A2.5,2.5,0,0,0,10,24.992H4.724V29.78H9.881A2.153,2.153,0,0,0,11.845,29.166Zm7.49-20.013H20.44l2.087-3.929v5.4H24V2.646H22.282l-2.456,4.42L17.37,2.646H15.651v8.1h1.473V5.224Zm7.244,6.63a9.374,9.374,0,0,1,3.315.614,13.146,13.146,0,0,1,2.7,1.842,8.746,8.746,0,0,1,1.842,2.7,7.272,7.272,0,0,1,.614,3.315,9.223,9.223,0,0,1-.614,3.192,10.5,10.5,0,0,1-1.842,2.7,8.746,8.746,0,0,1-2.7,1.842,7.272,7.272,0,0,1-3.315.614,9.223,9.223,0,0,1-3.192-.614,8.131,8.131,0,0,1-2.7-1.842,10.5,10.5,0,0,1-1.842-2.7,7.063,7.063,0,0,1-.614-3.192,10.527,10.527,0,0,1,.614-3.315,10.5,10.5,0,0,1,1.842-2.7,8.746,8.746,0,0,1,2.7-1.842,7.063,7.063,0,0,1,3.192-.614Zm3.929,12.278a5.374,5.374,0,0,0,1.6-3.929,5.652,5.652,0,0,0-1.6-4.052,5.567,5.567,0,0,0-4.052-1.719,5.3,5.3,0,0,0-3.929,1.719,5.459,5.459,0,0,0-1.6,4.052,5.187,5.187,0,0,0,1.6,3.929,5.374,5.374,0,0,0,3.929,1.6A4.734,4.734,0,0,0,30.508,28.061Zm.123-25.416h.737l3.683,8.1h-1.6l-.737-1.473H29.157l-.737,1.473h-1.6ZM29.894,7.8h2.333L31,5.224Zm9.454-.368v3.315H37.875v-8.1h4.052a3.01,3.01,0,0,1,1.964.737A2.229,2.229,0,0,1,44.628,5.1a2.586,2.586,0,0,1-.614,1.6,2.933,2.933,0,0,1-1.6.859l2.21,3.315H42.909L40.7,7.557H39.348Zm9.577,8.595h2.824V32.236H50.4L41.19,21.8V32.236H38.366V16.029h1.351l9.209,10.436ZM39.348,3.873v2.21H41.8a1.115,1.115,0,0,0,.859-.368,1.115,1.115,0,0,0,.368-.859.875.875,0,0,0-.368-.737,1.326,1.326,0,0,0-.859-.368H39.348Zm12.4-1.228a3.01,3.01,0,0,1,1.964.737A2.229,2.229,0,0,1,54.45,5.1a2.586,2.586,0,0,1-.614,1.6,2.933,2.933,0,0,1-1.6.859l2.21,3.315H52.731l-2.21-3.315H49.293v3.315H47.82V2.646Zm1.228,2.333a.742.742,0,0,0-.368-.737,1.394,1.394,0,0,0-.982-.368H49.171v2.21h2.456a1.115,1.115,0,0,0,.859-.368.673.673,0,0,0,.491-.737ZM67.1,16.029h3.07L63.045,32.236H61.694L54.573,16.029h3.07l4.666,10.8Zm-9.209-5.4h1.473V2.646H57.888ZM66.605,2.4a3.991,3.991,0,0,1,2.947,1.228A3.991,3.991,0,0,1,70.78,6.575a3.64,3.64,0,0,1-1.228,2.947,3.991,3.991,0,0,1-2.947,1.228,3.808,3.808,0,0,1-2.947-1.228,3.991,3.991,0,0,1-1.228-2.947,3.991,3.991,0,0,1,1.228-2.947A4.531,4.531,0,0,1,66.605,2.4Zm1.842,6.139a2.788,2.788,0,0,0,.737-1.964A2.518,2.518,0,0,0,66.605,4a3.01,3.01,0,0,0-1.964.737A2.5,2.5,0,0,0,63.9,6.575a3.01,3.01,0,0,0,.737,1.964,3.01,3.01,0,0,0,1.964.737A2.5,2.5,0,0,0,68.447,8.539Zm9.822,7.244a5.186,5.186,0,0,1,3.929,1.6,5.374,5.374,0,0,1,1.6,3.929,5.187,5.187,0,0,1-1.6,3.929,5.374,5.374,0,0,1-3.929,1.6,5.187,5.187,0,0,1-3.929-1.6,5.374,5.374,0,0,1-1.6-3.929,5.451,5.451,0,0,1,5.525-5.525Zm.859-13.138V4H76.8v6.63H75.323V4H72.99V2.646Zm1.473,21a3.144,3.144,0,0,0,.982-2.333,3.592,3.592,0,0,0-.982-2.333,3.144,3.144,0,0,0-2.333-.982,3.592,3.592,0,0,0-2.333.982,3.144,3.144,0,0,0-.982,2.333,3.354,3.354,0,0,0,.982,2.333,3.144,3.144,0,0,0,2.333.982A3.354,3.354,0,0,0,80.6,23.641Zm7.244-21V4H85.514v6.63H84.04V4H81.707V2.646ZM101.6,16.029l-6.507,9.209v7H92.267v-7l-6.507-9.209h3.192l4.666,6.63,4.666-6.63Zm1.719.246v1.719h.246V16.274h.614v-.246H102.7v.246Zm1.473,1.842h0V16.643l.491,1.6h.246l.491-1.6v1.473h.368V16.029h-.368l-.491,1.6v0l-.491-1.6h-.368v2.087Z" transform="translate(0)" fill="#fff"/>
    <rect id="Rectangle_2473" data-name="Rectangle 2473" width="14.12" height="2.333" transform="translate(71.271 31.867)" fill="#f79766"/>
  </g>
</svg>
