<svg xmlns="http://www.w3.org/2000/svg" xmlns:xlink="http://www.w3.org/1999/xlink" width="147" height="111.234" viewBox="0 0 147 111.234">
  <defs>
    <linearGradient id="linear-gradient" x1="-0.008" y1="0.5" x2="1.018" y2="0.6" gradientUnits="objectBoundingBox">
      <stop offset="0" stop-color="#fff" stop-opacity="0"/>
      <stop offset="0.498" stop-color="#fff"/>
      <stop offset="1" stop-color="#fff" stop-opacity="0"/>
    </linearGradient>
  </defs>
  <g id="Group_8024" data-name="Group 8024" transform="translate(-676 -28.366)">
    <g id="pier-south-resort-autograph-collection-san-diago" transform="translate(704.5 19.966)">
      <g id="Group_7414" data-name="Group 7414" transform="translate(6 8.4)">
        <path id="Path_26607" data-name="Path 26607" d="M7.815,259.6H7.346l-1.025,2.693H6v.293H7.054v-.293H6.673l.263-.732H8.02l.263.732H7.815v.293H9.22v-.293H8.81Zm-.761,1.668.439-1.229h.029l.41,1.229Z" transform="translate(-6 -186.069)" fill="#89d4e3"/>
        <path id="Path_26608" data-name="Path 26608" d="M30.69,261.825h0l-.761-2.225H28.7v.322h.468v2.371H28.7v.293h1.2v-.293h-.41v-2.342h.029l.966,2.634h.234l.966-2.634h.029v2.342h-.381v.293h1.346v-.293h-.5v-2.371h.5V259.6H31.452Z" transform="translate(-22.055 -186.069)" fill="#89d4e3"/>
        <path id="Path_26609" data-name="Path 26609" d="M47.864,259.4a1.507,1.507,0,0,0-1.464,1.551,1.472,1.472,0,0,0,1.464,1.551,1.507,1.507,0,0,0,1.464-1.551A1.472,1.472,0,0,0,47.864,259.4Zm0,2.81c-.585,0-.907-.468-.907-1.259s.322-1.259.907-1.259.907.468.907,1.259C48.8,261.742,48.478,262.21,47.864,262.21Z" transform="translate(-34.574 -185.928)" fill="#89d4e3"/>
        <path id="Path_26610" data-name="Path 26610" d="M61.788,259.6H60.5v.293H61v2.371h-.5v.293h1.317a1.462,1.462,0,0,0,1.639-1.522C63.456,260.185,62.9,259.6,61.788,259.6Zm.029,2.693h-.351v-2.371h.322c.79,0,1.142.351,1.142,1.142C62.93,261.942,62.578,262.293,61.817,262.293Z" transform="translate(-44.547 -186.069)" fill="#89d4e3"/>
        <path id="Path_26611" data-name="Path 26611" d="M76.473,262.364H75.6v-1.112h.322c.322,0,.381.059.468.468h.234v-1.171h-.234c-.088.41-.117.468-.468.468H75.6v-1.025h.878c.351,0,.381.146.556.673h.2V259.7H74.6v.293h.5v2.371h-.5v.293h2.664V261.6h-.2C76.942,262.217,76.883,262.364,76.473,262.364Z" transform="translate(-54.52 -186.14)" fill="#89d4e3"/>
        <path id="Path_26612" data-name="Path 26612" d="M90.934,262.393c-.088,0-.117-.059-.146-.2l-.029-.322c-.029-.322-.146-.527-.615-.644v-.029c.585-.088.761-.41.761-.732,0-.381-.234-.761-1.142-.761H88.3v.293h.5v2.371h-.5v.293h1.464v-.293h-.5v-1.025h.527c.439,0,.5.146.5.468v.351a.475.475,0,0,0,.527.527.556.556,0,0,0,.5-.41l-.2-.088C91.052,262.334,90.993,262.393,90.934,262.393Zm-1.2-1.317h-.468v-1.083h.527c.439,0,.585.176.585.5C90.378,260.842,90.232,261.076,89.734,261.076Z" transform="translate(-64.209 -186.14)" fill="#89d4e3"/>
        <path id="Path_26613" data-name="Path 26613" d="M104.049,259.922h.468v1.844h-.029L103,259.6h-1v.322h.468v2.371H102v.293h1.259v-.293h-.468v-2.078h.059l1.668,2.43h.351v-2.722h.439V259.6h-1.259Z" transform="translate(-73.899 -186.069)" fill="#89d4e3"/>
        <path id="Path_26614" data-name="Path 26614" d="M127.4,261.034h0c.615-.117.761-.468.761-.7,0-.381-.234-.732-1.112-.732H125.7v.293h.5v2.371h-.5v.293h1.346c1,0,1.259-.41,1.259-.849C128.305,261.386,128.012,261.064,127.4,261.034Zm-.732-1.112h.381c.527,0,.644.176.644.439,0,.322-.146.527-.644.527h-.381Zm.351,2.371h-.351v-1.142h.351c.585,0,.79.234.79.556C127.808,262.117,127.6,262.293,127.017,262.293Z" transform="translate(-90.662 -186.069)" fill="#89d4e3"/>
        <path id="Path_26615" data-name="Path 26615" d="M140.444,262.364h-.878v-1.112h.322c.322,0,.381.059.468.468h.234v-1.171h-.234c-.088.41-.117.468-.468.468H139.6v-1.025h.878c.351,0,.381.146.556.673h.2V259.7H138.6v.293h.5v2.371h-.5v.293h2.664V261.6h-.2C140.912,262.217,140.854,262.364,140.444,262.364Z" transform="translate(-99.786 -186.14)" fill="#89d4e3"/>
        <path id="Path_26616" data-name="Path 26616" d="M153.315,259.6h-.468l-1.025,2.693H151.5v.293h1.054v-.293h-.381l.263-.732h1.083l.263.732h-.468v.293h1.405v-.293h-.439Zm-.761,1.668.439-1.229h.029l.41,1.229Z" transform="translate(-108.91 -186.069)" fill="#89d4e3"/>
        <path id="Path_26617" data-name="Path 26617" d="M167.093,262.139c-.615,0-.937-.468-.937-1.288,0-.878.381-1.229.878-1.229.41,0,.7.351.907.878h.263v-1.171h-.293l-.088.322a1.073,1.073,0,0,0-.82-.351,1.5,1.5,0,0,0-1.405,1.551,1.452,1.452,0,0,0,1.405,1.581,1.3,1.3,0,0,0,1.317-1.259H168A.965.965,0,0,1,167.093,262.139Z" transform="translate(-118.882 -185.857)" fill="#89d4e3"/>
        <path id="Path_26618" data-name="Path 26618" d="M180.9,259.922h.439v1h-1.376v-1h.439V259.6H179v.322h.5v2.371H179v.293h1.405v-.293h-.439v-1.112h1.376v1.112H180.9v.293h1.405v-.293h-.5v-2.371h.5V259.6H180.9Z" transform="translate(-128.36 -186.069)" fill="#89d4e3"/>
        <path id="Path_26619" data-name="Path 26619" d="M205.334,262.393c-.088,0-.117-.059-.146-.2l-.029-.322c-.029-.322-.146-.527-.615-.644v-.029c.585-.088.761-.41.761-.732,0-.381-.234-.761-1.142-.761H202.7v.293h.5v2.371h-.5v.293h1.464v-.293h-.5v-1.025h.527c.439,0,.5.146.5.468v.351a.475.475,0,0,0,.527.527.557.557,0,0,0,.5-.41l-.2-.088C205.481,262.334,205.422,262.393,205.334,262.393Zm-1.171-1.317h-.5v-1.083h.527c.439,0,.585.176.585.5C204.778,260.842,204.632,261.076,204.164,261.076Z" transform="translate(-145.123 -186.14)" fill="#89d4e3"/>
        <path id="Path_26620" data-name="Path 26620" d="M218.173,262.364H217.3v-1.112h.322c.322,0,.381.059.468.468h.234v-1.171h-.234c-.088.41-.117.468-.468.468H217.3v-1.025h.878c.351,0,.381.146.556.673h.2V259.7H216.3v.293h.5v2.371h-.5v.293h2.664V261.6h-.2C218.612,262.217,218.554,262.364,218.173,262.364Z" transform="translate(-154.742 -186.14)" fill="#89d4e3"/>
        <path id="Path_26621" data-name="Path 26621" d="M231.588,260.646c-.41-.117-.82-.2-.82-.615a.423.423,0,0,1,.468-.439c.351,0,.615.176.878.761h.263v-1.025h-.293l-.088.293a1,1,0,0,0-.732-.322.891.891,0,0,0-.937.849c0,.615.5.761.966.907.41.117.79.2.79.585,0,.322-.2.5-.556.5-.41,0-.615-.2-.966-.82H230.3V262.4h.293l.117-.322a1.1,1.1,0,0,0,.82.322.94.94,0,0,0,1-.937C232.525,260.91,232.056,260.764,231.588,260.646Z" transform="translate(-164.644 -185.857)" fill="#89d4e3"/>
        <path id="Path_26622" data-name="Path 26622" d="M243.764,259.4a1.507,1.507,0,0,0-1.464,1.551,1.472,1.472,0,0,0,1.464,1.551,1.554,1.554,0,0,0,0-3.1Zm0,2.81c-.585,0-.907-.468-.907-1.259s.322-1.259.907-1.259.907.468.907,1.259S244.349,262.21,243.764,262.21Z" transform="translate(-173.131 -185.928)" fill="#89d4e3"/>
        <path id="Path_26623" data-name="Path 26623" d="M259.034,262.393c-.088,0-.117-.059-.146-.2l-.029-.322c-.029-.322-.146-.527-.615-.644v-.029c.585-.088.761-.41.761-.732,0-.381-.234-.761-1.142-.761H256.4v.293h.5v2.371h-.5v.293h1.464v-.293h-.5v-1.025h.527c.439,0,.5.146.5.468v.351a.475.475,0,0,0,.527.527.557.557,0,0,0,.5-.41l-.2-.088C259.152,262.334,259.093,262.393,259.034,262.393Zm-1.2-1.317h-.468v-1.083h.527c.439,0,.585.176.585.5C258.478,260.842,258.332,261.076,257.834,261.076Z" transform="translate(-183.104 -186.14)" fill="#89d4e3"/>
        <path id="Path_26624" data-name="Path 26624" d="M270,260.654h.2c.234-.673.293-.79.7-.79h.2v2.43h-.527v.293h1.522v-.293h-.527v-2.43h.2c.41,0,.5.117.7.79h.2V259.6H270Z" transform="translate(-192.723 -186.069)" fill="#89d4e3"/>
        <path id="Path_26625" data-name="Path 26625" d="M89.878,138.5c-2.166,0-3.278,1.434-3.278,4.274v15.748c0,2.869,1.112,4.274,3.278,4.274s3.249-1.434,3.249-4.274V142.774C93.157,139.934,92.045,138.5,89.878,138.5Z" transform="translate(-63.007 -100.418)" fill="#89d4e3"/>
        <path id="Path_26626" data-name="Path 26626" d="M7.2,8.4V35.857h0v41.39h0v.029H86.848V8.4ZM19.523,72.271c-3.1,0-4.8-2.254-4.8-6.089V64.953h1.493v1.142c0,2.927,1.142,4.742,3.308,4.742s3.425-1.961,3.425-4.742a7.769,7.769,0,0,0-1.786-4.8l-3.952-4.6a7.912,7.912,0,0,1-2.283-5.562c0-3.747,1.551-6.118,4.742-6.118s4.479,2.312,4.479,6.089v1.171H22.626V51.166c0-2.722-.82-4.683-2.986-4.683-2.254,0-3.22,1.9-3.22,4.683a6.322,6.322,0,0,0,1.844,4.274l3.952,4.6a9.281,9.281,0,0,1,2.254,6.089C24.47,69.695,22.655,72.271,19.523,72.271ZM38.491,66.5c0,3.747-1.727,5.767-4.771,5.767-3.074,0-4.771-1.99-4.771-5.767V50.756c0-3.747,1.727-5.737,4.771-5.737,3.074,0,4.771,1.99,4.771,5.737V66.5Zm14.489,0c0,3.747-1.581,5.767-4.654,5.767s-4.654-1.99-4.654-5.767V45.341h1.522V66.5c0,2.869.966,4.274,3.132,4.274s3.132-1.434,3.132-4.274V45.341h1.522Zm12.85-19.729H61.967V71.949H60.445V46.775H56.581V45.341h9.25v1.434ZM78.974,71.949H77.452V58.894H71.246V71.949H69.724V45.341h1.522V57.459h6.206V45.341h1.522Zm5.24-34.98c-3.922-2.225-13.728-4.069-38.17.585-21.573,4.01-31.906,1.668-36.209-.176V11.034H84.214Z" transform="translate(-6.849 -8.4)" fill="#89d4e3"/>
      </g>
      <g id="Group_7415" data-name="Group 7415" transform="translate(14.05 16.245)">
        <path id="Path_26627" data-name="Path 26627" d="M49.307,39.825a5.169,5.169,0,0,1-.381,2.137,3.378,3.378,0,0,1-1.142,1.405,4.856,4.856,0,0,1-1.815.761,12.089,12.089,0,0,1-2.459.234H35.022v4.391H33.5V35.2H43.6a9.624,9.624,0,0,1,2.634.293,4.5,4.5,0,0,1,1.756.878,3.528,3.528,0,0,1,1,1.434A5.523,5.523,0,0,1,49.307,39.825ZM47.755,39.8a3.83,3.83,0,0,0-.2-1.346,2.213,2.213,0,0,0-.7-1,3.448,3.448,0,0,0-1.317-.615,8.1,8.1,0,0,0-2.02-.2h-8.46v6.381h8.4a8.64,8.64,0,0,0,2.137-.2,3.448,3.448,0,0,0,1.317-.615,2.158,2.158,0,0,0,.673-1A5.276,5.276,0,0,0,47.755,39.8Z" transform="translate(-33.5 -35.2)" fill="#89d4e3"/>
        <path id="Path_26628" data-name="Path 26628" d="M102,48.753V35.2h1.581V48.753Z" transform="translate(-81.949 -35.2)" fill="#89d4e3"/>
        <path id="Path_26629" data-name="Path 26629" d="M126.6,48.753V35.2h15.338v1.434H128.093v4.537h13.553v1.434H128.093v4.683h14.021v1.464Z" transform="translate(-99.348 -35.2)" fill="#89d4e3"/>
        <path id="Path_26630" data-name="Path 26630" d="M210.355,38.918a4.717,4.717,0,0,1-.176,1.288,2.933,2.933,0,0,1-.556,1.083,3.612,3.612,0,0,1-1.025.82,4.389,4.389,0,0,1-1.581.468l5.064,6.176h-1.932l-4.83-6h-8.869v6H194.9V35.2h10.509a8.13,8.13,0,0,1,2.225.263,4.125,4.125,0,0,1,1.522.761,2.819,2.819,0,0,1,.878,1.171A3.308,3.308,0,0,1,210.355,38.918Zm-1.581.059a2.112,2.112,0,0,0-.82-1.756,4.5,4.5,0,0,0-2.664-.644h-8.84v4.771h9.425a3.144,3.144,0,0,0,2.254-.644A2.253,2.253,0,0,0,208.775,38.976Z" transform="translate(-147.655 -35.2)" fill="#89d4e3"/>
      </g>
    </g>
    <g id="autograph-collection-hotels-vector-logo" transform="translate(557.5 -241.2)">
      <g id="Group_7940" data-name="Group 7940" transform="translate(121.5 362.2)">
        <path id="Path_30578" data-name="Path 30578" d="M616.789,365.19a3.232,3.232,0,0,0-2.218-.948,2.968,2.968,0,0,0,.061,5.935,3.383,3.383,0,0,0,2.218-.948v1.01a3.777,3.777,0,0,1-5.95-3.044,3.812,3.812,0,0,1,3.793-3.793,3.77,3.77,0,0,1,2.157.688v1.071h-.061Z" transform="translate(-536.043 -363.216)" fill="#fff"/>
        <path id="Path_30579" data-name="Path 30579" d="M670.287,367.632a3.794,3.794,0,1,1-3.793-3.732A3.76,3.76,0,0,1,670.287,367.632Zm-6.776,0a2.97,2.97,0,0,0,2.967,2.967,3.01,3.01,0,0,0,2.967-2.967,2.967,2.967,0,0,0-5.935,0Z" transform="translate(-579.919 -363.64)" fill="#fff"/>
        <path id="Path_30580" data-name="Path 30580" d="M837.65,365.19a3.232,3.232,0,0,0-2.218-.948,2.957,2.957,0,0,0-2.906,2.967,3,3,0,0,0,2.906,2.967,3.383,3.383,0,0,0,2.218-.948v1.01a3.777,3.777,0,0,1-5.95-3.044,3.812,3.812,0,0,1,3.793-3.793,3.769,3.769,0,0,1,2.157.688Z" transform="translate(-723.07 -363.216)" fill="#fff"/>
        <path id="Path_30581" data-name="Path 30581" d="M728.265,371.24h2.019V372H727.5v-7.2h.826v6.455h-.061Z" transform="translate(-634.808 -364.402)" fill="#fff"/>
        <path id="Path_30582" data-name="Path 30582" d="M762.165,371.24h2.019V372H761.4v-7.2h.826v6.455h-.061Z" transform="translate(-663.522 -364.402)" fill="#fff"/>
        <path id="Path_30583" data-name="Path 30583" d="M794.5,364.7h3.732v.765h-2.967v2.157h2.845v.765h-2.845v2.845h2.967V372H794.5Z" transform="translate(-691.56 -364.318)" fill="#fff"/>
        <path id="Path_30584" data-name="Path 30584" d="M885.1,371.92h-.826v-6.455H882.5V364.7h4.3v.765h-1.774v6.455Z" transform="translate(-766.099 -364.318)" fill="#fff"/>
        <path id="Path_30585" data-name="Path 30585" d="M924.326,372H923.5v-7.2h.826Z" transform="translate(-800.828 -364.402)" fill="#fff"/>
        <path id="Path_30586" data-name="Path 30586" d="M950.487,367.632a3.794,3.794,0,1,1-3.793-3.732A3.76,3.76,0,0,1,950.487,367.632Zm-6.761,0a2.97,2.97,0,0,0,2.967,2.967,3.01,3.01,0,0,0,2.967-2.967,2.967,2.967,0,0,0-5.935,0Z" transform="translate(-817.261 -363.64)" fill="#fff"/>
        <path id="Path_30587" data-name="Path 30587" d="M1006.6,362.7l5.629,5.95v-5.629h.826v7.587l-5.629-5.874V370.3h-.826Z" transform="translate(-871.217 -362.624)" fill="#fff"/>
        <path id="Path_30588" data-name="Path 30588" d="M177.9,369a2.7,2.7,0,0,0,.321,1.575,1.887,1.887,0,0,0,1.453.688,1.971,1.971,0,0,0,1.392-.627,2.427,2.427,0,0,0,.382-1.637v-4.3h.826v4.558a2.672,2.672,0,0,1-.627,2.019,2.792,2.792,0,0,1-1.958.826,2.7,2.7,0,0,1-1.9-.765,2.573,2.573,0,0,1-.688-2.08V364.7h.826L177.9,369Z" transform="translate(-168.596 -364.318)" fill="#fff"/>
        <path id="Path_30589" data-name="Path 30589" d="M227.4,371.92h-.826v-6.455H224.8V364.7h4.313v.765h-1.774v6.455Z" transform="translate(-208.999 -364.318)" fill="#fff"/>
        <path id="Path_30590" data-name="Path 30590" d="M270.887,367.632a3.794,3.794,0,1,1-3.793-3.732A3.76,3.76,0,0,1,270.887,367.632Zm-6.761,0a2.97,2.97,0,0,0,2.967,2.967,3.01,3.01,0,0,0,2.967-2.967,2.967,2.967,0,0,0-5.935,0Z" transform="translate(-241.611 -363.64)" fill="#fff"/>
        <path id="Path_30591" data-name="Path 30591" d="M488.565,372H487.8v-7.2h1.208a2.822,2.822,0,0,1,1.774.382,1.935,1.935,0,0,1,.826,1.637,2.176,2.176,0,0,1-.688,1.575,2.809,2.809,0,0,1-1.713.5h-.566V372Zm0-3.931h.5c.887,0,1.637-.26,1.637-1.331,0-1.208-.948-1.27-1.9-1.27h-.321v2.585h.076Z" transform="translate(-431.772 -364.402)" fill="#fff"/>
        <path id="Path_30592" data-name="Path 30592" d="M531.958,367.65V364.3h.826v7.2h-.826v-3.166h-3.732V371.5H527.4v-7.143h.826v3.35h3.732Z" transform="translate(-465.314 -363.979)" fill="#fff"/>
        <path id="Path_30593" data-name="Path 30593" d="M391.625,371.665h.948l-1.958-3.35a1.243,1.243,0,0,0,.5-.321,2.047,2.047,0,0,0,.688-1.575,1.917,1.917,0,0,0-.826-1.637,2.912,2.912,0,0,0-1.774-.382H388v7.2h.826v-6.516h.321c.948,0,1.9.061,1.9,1.27,0,1.01-.765,1.27-1.575,1.331Z" transform="translate(-347.237 -364.063)" fill="#fff"/>
        <path id="Path_30594" data-name="Path 30594" d="M333.367,367.463h-3.029a2.155,2.155,0,0,1,.765.765h1.392a1.969,1.969,0,0,1-.688,1.514,2.22,2.22,0,0,1-.765.5,2.592,2.592,0,0,1-1.132.26,2.78,2.78,0,0,1-2.019-.948,2.624,2.624,0,0,1-.826-1.9v-.184a2.184,2.184,0,0,1,.061-.627,3.04,3.04,0,0,1,2.906-2.4,2.779,2.779,0,0,1,2.4,1.392l.566-.566a3.566,3.566,0,0,0-2.967-1.575,3.689,3.689,0,0,0-3.732,3.472v.26a2.185,2.185,0,0,0,.061.627,3.741,3.741,0,0,0,3.671,3.105,2.967,2.967,0,0,0,1.071-.184c.321-.122.566-.26.887-.382a6.9,6.9,0,0,0,.765-.627A4.438,4.438,0,0,0,333.367,367.463Z" transform="translate(-294.974 -363.471)" fill="#fff"/>
        <path id="Path_30595" data-name="Path 30595" d="M121.5,370.31h.887l1.071-2.524a6.788,6.788,0,0,1,3.105,1.836,5.52,5.52,0,0,1,.627.765h.887L124.85,362.8l-1.835,4.176c-.26-.061-.5-.061-.765-.122a3.55,3.55,0,0,1,.444.826Zm2.279-3.227,1.071-2.463,1.575,3.855A7.19,7.19,0,0,0,123.779,367.083Z" transform="translate(-121.5 -362.708)" fill="#fff"/>
        <path id="Path_30596" data-name="Path 30596" d="M434.065,362.2l-1.835,4.176c-.26-.061-.5-.061-.765-.122a3.55,3.55,0,0,1,.444.826h0L430.7,369.8h.887l1.071-2.524a6.787,6.787,0,0,1,3.105,1.836,5.519,5.519,0,0,1,.627.765h.887Zm-1.086,4.375,1.071-2.463,1.637,3.855A8.6,8.6,0,0,0,432.979,366.575Z" transform="translate(-383.406 -362.2)" fill="#fff"/>
      </g>
      <g id="Group_7941" data-name="Group 7941" transform="translate(174.806 375.232)">
        <path id="Path_30597" data-name="Path 30597" d="M520.168,450.184a2.784,2.784,0,0,1-5.568,0,2.784,2.784,0,0,1,5.568,0Zm-.627,0a2.157,2.157,0,1,0-4.313,0,2.135,2.135,0,0,0,2.157,2.157A2.194,2.194,0,0,0,519.541,450.184Z" transform="translate(-507.778 -447.4)" fill="#fff"/>
        <path id="Path_30598" data-name="Path 30598" d="M569.5,453.608h-.627v-4.681H567.6V448.3h3.166v.627H569.5Z" transform="translate(-552.671 -448.162)" fill="#fff"/>
        <path id="Path_30599" data-name="Path 30599" d="M607.3,448.115h2.845v.627h-2.157v1.514h2.157v.627h-2.157v1.9h2.218v.627h-2.845V448.1H607.3Z" transform="translate(-586.299 -447.993)" fill="#fff"/>
        <path id="Path_30600" data-name="Path 30600" d="M647.542,452.88h1.637v.627H646.9V448.2h.688v4.681Z" transform="translate(-619.842 -448.078)" fill="#fff"/>
        <path id="Path_30601" data-name="Path 30601" d="M681.385,448.871a.9.9,0,0,0-.826-.5.848.848,0,0,0-.887.765c0,.444.382.627.765.765l.382.122c.765.321,1.331.688,1.331,1.575a1.647,1.647,0,0,1-1.713,1.637,1.63,1.63,0,0,1-1.637-1.453l.688-.122a1,1,0,0,0,1.01,1.01.986.986,0,0,0,.948-1.01c0-.566-.444-.826-.887-1.01l-.382-.122c-.627-.26-1.132-.627-1.132-1.331a1.451,1.451,0,0,1,1.575-1.392,1.666,1.666,0,0,1,1.392.826Z" transform="translate(-646.862 -447.739)" fill="#fff"/>
        <path id="Path_30602" data-name="Path 30602" d="M473.227,448.2v2.34H470.7V448.2H470v5.323h.7v-2.34h2.524v2.34h.627V448.2Z" transform="translate(-470 -448.078)" fill="#fff"/>
      </g>
    </g>
    <rect id="Rectangle_2361" data-name="Rectangle 2361" width="147" height="1" transform="translate(676 112.605)" fill="url(#linear-gradient)"/>
  </g>
</svg>
